<svg width="200px" height="100%" viewBox="0 0 566 137" style="enable-background:new 0 0 474 122" class="max-w-full"><defs><linearGradient x1="0.000165885323%" y1="50.0002774%" x2="100.000166%" y2="50.0002774%" id="linearGradient-3"><stop stop-color="#E8672C" offset="0%"></stop><stop stop-color="#A10684" offset="100%"></stop></linearGradient><polygon id="path-1" points="62.095 0.219 110.92 0.219 48.988 108.3754 0 108.3754"></polygon></defs><g id="Page-1" stroke="none" stroke-width="1" fill="none" fill-rule="evenodd"><g id="Group-12"><polygon id="Fill-4" fill="#ffffff" points="180.844 109.1764 197.37 109.1764 197.37 28.1874 180.844 28.1874"></polygon><path d="M248.208,86.817 L248.208,73.474 C244.852,68.593 240.197,66.966 235.542,66.966 C227.423,66.966 221.793,72.39 221.793,80.633 C221.793,86.709 227.423,93.326 235.542,93.326 C240.197,93.326 244.852,91.699 248.208,86.817 L248.208,86.817 Z M264.734,54.593 L264.734,109.347 C264.734,126.343 251.515,136.781 235.318,136.781 C219.69,136.781 208.055,127.086 206.915,113.397 L223.381,113.493 C224.065,119.31 229.167,121.82 235.902,121.82 C242.278,121.82 248.208,118.416 248.208,109.519 L248.208,102.56 C243.987,105.297 238.625,106.895 232.581,106.895 C217.523,106.895 205.431,94.689 205.431,80.659 C205.431,64.347 217.523,53.396 232.581,53.396 C238.625,53.396 243.987,54.993 248.208,57.731 L248.208,54.765 L264.734,54.593 Z" id="Fill-5" fill="#ffffff"></path><path d="M314.632,81.2165 C314.632,73.2755 309.41,66.8575 301.361,66.8575 C293.203,66.8575 287.981,73.2755 287.981,81.2165 C287.981,89.3745 293.203,95.4655 301.361,95.4655 C309.41,95.4655 314.632,89.3745 314.632,81.2165 M330.579,81.2195 C330.579,98.0785 318.108,110.0875 301.364,110.0875 C284.505,110.0875 272.033,98.0785 272.033,81.2195 C272.033,64.4755 284.505,52.2345 301.364,52.2345 C318.108,52.2345 330.579,64.4755 330.579,81.2195" id="Fill-6" fill="#ffffff"></path><path d="M416.873,90.3102 L416.873,73.6302 C413.449,68.7712 408.699,67.4462 403.95,67.4462 C395.665,67.4462 389.921,74.0732 389.921,82.0262 C389.921,89.8692 395.665,96.4962 403.95,96.4962 C408.699,96.4962 413.449,95.1702 416.873,90.3102 L416.873,90.3102 Z M433.088,54.6822 L433.088,109.0932 L416.873,109.1762 L416.873,106.0972 C412.653,108.8332 407.291,110.5442 401.245,110.5442 C386.189,110.5442 374.097,97.7702 374.097,82.0282 C374.097,66.1712 386.189,53.3962 401.245,53.3962 C407.291,53.3962 412.653,55.1072 416.873,57.8442 L416.873,54.7652 L433.088,54.6822 Z" id="Fill-7" fill="#ffffff"></path><path d="M499.663,79.6325 L499.663,109.1765 L483.741,109.1765 L483.741,81.5255 C483.741,72.6275 479.292,67.9505 471.421,67.9505 C467.314,67.9505 462.751,70.3465 458.872,74.9085 L458.872,109.1765 L442.589,109.1765 L442.589,54.7655 L458.872,54.7655 L458.872,58.8715 C463.322,55.3355 468.455,53.3965 474.614,53.3965 C489.101,53.3965 499.663,63.6625 499.663,79.6325" id="Fill-8" fill="#ffffff"></path><polygon id="Fill-9" fill="#ffffff" points="173.315 109.1393 156.467 109.1393 145.523 68.4333 121.998 109.1393 103.19 109.1393 139.55 46.1313 133.701 24.252 84.6689 109.1573 65.8509 109.1573 127.985 1.525 144.461 1.525 151.674 28.266 168.673 28.266 157.066 48.4473"></polygon><path d="M548.872,90.3747 L548.872,73.5667 C545.422,68.6707 540.636,67.3347 535.851,67.3347 C527.502,67.3347 521.715,74.0127 521.715,81.9147 C521.715,89.9287 527.502,96.6067 535.851,96.6067 C540.636,96.6067 545.422,95.2707 548.872,90.3747 L548.872,90.3747 Z M565.398,28.187 L565.398,109.1767 L548.872,109.1767 L548.872,106.0977 C544.652,108.8337 539.29,110.5447 533.245,110.5447 C518.188,110.5447 506.096,97.7707 506.096,81.9137 C506.096,66.1717 518.188,53.3957 533.245,53.3957 C539.29,53.3957 544.652,55.1067 548.872,57.8447 L548.872,28.187 L565.398,28.187 Z" id="Fill-10" fill="#ffffff"></path><path d="M371.15,68.4704 C367.54,68.9134 359.117,69.3214 354.176,76.1264 L354.176,109.1764 L337.877,109.1764 L337.877,54.8474 L354.176,54.8474 L354.176,58.9224 C357.887,55.7164 363.493,53.8704 371.15,54.6164" id="Fill-11" fill="#ffffff"></path></g></g></svg>